<svg width="50" height="50" viewBox="0 0 50 50" fill="none" xmlns="http://www.w3.org/2000/svg">
<g clip-path="url(#clip0_144_18659)">
<path d="M47.6254 0H33.3284V2.39065H30.9534V16.672H2.37502V19.047H30.9534V26.2034H33.3284V35.7191H2.37502V19.047H0V40.4847H2.37502V38.1097H33.3284V40.4847H35.7191V28.5784H47.6254V26.2034H50.0004V2.39065H47.6254V0ZM38.0941 2.39065H42.8597V4.76567H38.0941V2.39065ZM47.6254 23.8127H33.3284V4.76567H35.7191V7.15631H45.2348V4.76567H47.6254V23.8127Z" fill="#F8F8F8"/>
<path d="M45.2344 14.2973H42.8593V16.6723H45.2344V14.2973Z" fill="#F8F8F8"/>
<path d="M45.2344 9.53094H42.8593V11.906H45.2344V9.53094Z" fill="#F8F8F8"/>
<path d="M42.8595 16.6721H38.0939V19.0471H42.8595V16.6721Z" fill="#F8F8F8"/>
<path d="M38.0941 14.2973H35.7191V16.6723H38.0941V14.2973Z" fill="#F8F8F8"/>
<path d="M38.0941 9.53094H35.7191V11.906H38.0941V9.53094Z" fill="#F8F8F8"/>
<path d="M2.37482 40.4845V42.8595H11.9061V45.2502H14.2812V42.8595H21.4219V45.2502H23.8125V42.8595H33.3282V40.4845H2.37482Z" fill="#F8F8F8"/>
<path d="M30.9538 26.2039H28.5788V28.579H30.9538V26.2039Z" fill="#F8F8F8"/>
<path d="M28.5779 28.5788H26.1872V30.9538H28.5779V28.5788Z" fill="#F8F8F8"/>
<path d="M28.5779 23.8133H26.1872V26.2039H28.5779V23.8133Z" fill="#F8F8F8"/>
<path d="M26.1883 30.9527H23.8133V33.3433H26.1883V30.9527Z" fill="#F8F8F8"/>
<path d="M26.1883 21.4376H23.8133V23.8126H26.1883V21.4376Z" fill="#F8F8F8"/>
<path d="M11.906 47.625V45.25H9.53094V50H26.1873V45.25H23.8123V47.625H11.906Z" fill="#F8F8F8"/>
<path d="M21.4228 21.4376H19.0478V26.2033H21.4228V21.4376Z" fill="#F8F8F8"/>
<path d="M19.0471 26.2039H16.6721V28.579H19.0471V26.2039Z" fill="#F8F8F8"/>
<path d="M16.6721 28.5788H14.2815V33.3444H16.6721V28.5788Z" fill="#F8F8F8"/>
<path d="M11.906 30.9527H9.53094V33.3433H11.906V30.9527Z" fill="#F8F8F8"/>
<path d="M11.906 21.4376H9.53094V23.8126H11.906V21.4376Z" fill="#F8F8F8"/>
<path d="M9.53182 28.5788H7.14117V30.9538H9.53182V28.5788Z" fill="#F8F8F8"/>
<path d="M9.53182 23.8133H7.14117V26.2039H9.53182V23.8133Z" fill="#F8F8F8"/>
<path d="M7.14049 26.2039H4.76547V28.579H7.14049V26.2039Z" fill="#F8F8F8"/>
</g>
<defs>
<clipPath id="clip0_144_18659">
<rect width="50" height="50" fill="white"/>
</clipPath>
</defs>
</svg>
