<svg width="50" height="50" viewBox="0 0 50 50" fill="none" xmlns="http://www.w3.org/2000/svg">
<g clip-path="url(#clip0_36_1366)">
<path d="M50 11.9062H47.625V14.2813H50V11.9062Z" fill="#F8F8F8"/>
<path d="M42.8594 23.8125V26.1875H38.1094V28.5781H42.8594V42.8594H33.3438V45.2344H42.8594V47.625H50V23.8125H42.8594Z" fill="#F8F8F8"/>
<path d="M47.625 14.2812H45.25V16.6719H47.625V14.2812Z" fill="#F8F8F8"/>
<path d="M45.25 11.9062H42.8594V14.2813H45.25V11.9062Z" fill="#F8F8F8"/>
<path d="M42.8594 14.2812H40.4844V16.6719H42.8594V14.2812Z" fill="#F8F8F8"/>
<path d="M42.8594 2.39062H40.4844V4.76562H42.8594V2.39062Z" fill="#F8F8F8"/>
<path d="M40.4844 11.9062H38.1094V14.2813H40.4844V11.9062Z" fill="#F8F8F8"/>
<path d="M38.1094 23.8125H35.7188V26.1875H38.1094V23.8125Z" fill="#F8F8F8"/>
<path d="M35.7188 21.4375H33.3438V23.8125H35.7188V21.4375Z" fill="#F8F8F8"/>
<path d="M33.3438 35.7188H30.9531V40.4844H26.2031V45.2344H28.5781V42.8594H33.3438V35.7188Z" fill="#F8F8F8"/>
<path d="M30.9531 33.3438H28.5781V35.7188H30.9531V33.3438Z" fill="#F8F8F8"/>
<path d="M30.9531 4.76562H28.5781V7.14063H30.9531V4.76562Z" fill="#F8F8F8"/>
<path d="M28.5781 30.9531H26.2031V33.3438H28.5781V30.9531Z" fill="#F8F8F8"/>
<path d="M28.5781 26.1875H26.2031V28.5781H28.5781V26.1875Z" fill="#F8F8F8"/>
<path d="M33.3438 19.0469H23.8125V21.4375H33.3438V19.0469Z" fill="#F8F8F8"/>
<path d="M28.5781 7.14062H26.2031V9.53125H28.5781V7.14062Z" fill="#F8F8F8"/>
<path d="M28.5781 2.39062H26.2031V4.76562H28.5781V2.39062Z" fill="#F8F8F8"/>
<path d="M26.2031 38.0938H23.8125V40.4844H26.2031V38.0938Z" fill="#F8F8F8"/>
<path d="M26.2031 28.5781H23.8125V30.9531H26.2031V28.5781Z" fill="#F8F8F8"/>
<path d="M26.2031 4.76562H23.8125V7.14063H26.2031V4.76562Z" fill="#F8F8F8"/>
<path d="M21.4375 47.625H14.2969V50H23.8125V47.625H26.2031V45.2344H21.4375V47.625Z" fill="#F8F8F8"/>
<path d="M23.8125 21.4375H21.4375V23.8125H23.8125V21.4375Z" fill="#F8F8F8"/>
<path d="M21.4375 42.8594H19.0469V45.2344H21.4375V42.8594Z" fill="#F8F8F8"/>
<path d="M23.8125 30.9531H19.0469V33.3438H23.8125V30.9531Z" fill="#F8F8F8"/>
<path d="M21.4375 23.8125H19.0469V26.1875H21.4375V23.8125Z" fill="#F8F8F8"/>
<path d="M21.4375 19.0469H16.6719V21.4375H21.4375V19.0469Z" fill="#F8F8F8"/>
<path d="M19.0469 40.4844H16.6719V42.8594H19.0469V40.4844Z" fill="#F8F8F8"/>
<path d="M19.0469 26.1875H16.6719V30.9531H19.0469V26.1875Z" fill="#F8F8F8"/>
<path d="M19.0469 9.53125H16.6719V11.9062H19.0469V9.53125Z" fill="#F8F8F8"/>
<path d="M16.6719 21.4375H14.2969V23.8125H16.6719V21.4375Z" fill="#F8F8F8"/>
<path d="M14.2969 45.2344H11.9062V47.625H14.2969V45.2344Z" fill="#F8F8F8"/>
<path d="M14.2969 23.8125H11.9062V26.1875H14.2969V23.8125Z" fill="#F8F8F8"/>
<path d="M7.15625 42.8594V28.5781H11.9062V26.1875H7.15625V23.8125H0V47.625H7.15625V45.2344H11.9062V42.8594H7.15625Z" fill="#F8F8F8"/>
<path d="M11.9062 0H9.53125V2.39062H11.9062V0Z" fill="#F8F8F8"/>
<path d="M7.15625 19.0469V16.6719H9.53125V14.2813H7.15625V11.9062H4.76563V14.2813H2.39062V16.6719H4.76563V19.0469H7.15625Z" fill="#F8F8F8"/>
</g>
<defs>
<clipPath id="clip0_36_1366">
<rect width="50" height="50" fill="white"/>
</clipPath>
</defs>
</svg>
