<svg width="50" height="50" viewBox="0 0 50 50" fill="none" xmlns="http://www.w3.org/2000/svg">
<path d="M49.9999 40.0093H47.5065V42.5027H49.9999V40.0093Z" fill="#F8F8F8"/>
<path d="M47.506 37.5006H44.9962V40.0104H47.506V37.5006Z" fill="#F8F8F8"/>
<path d="M47.506 20.0135H44.9962V25.0003H47.506V20.0135Z" fill="#F8F8F8"/>
<path d="M47.506 42.5035H40.0093V44.997H47.506V42.5035Z" fill="#F8F8F8"/>
<path d="M44.997 35.0063H42.5035V37.4998H44.997V35.0063Z" fill="#F8F8F8"/>
<path d="M42.5037 22.5069H40.0102V20.0135H37.5004V22.5069H35.0069V25.0003H32.4971V27.5102H30.0037V30.0036H27.5102V32.4971H25.0004V35.0069H27.5102V37.5003H30.0037V40.0102H32.4971V37.5003H35.0069V35.0069H37.5004V32.4971H40.0102V30.0036H42.5037V27.5102H44.9971V25.0003H42.5037V22.5069Z" fill="#F8F8F8"/>
<path d="M44.9961 17.5031H40.0093V20.013H44.9961V17.5031Z" fill="#F8F8F8"/>
<path d="M40.0096 44.9962H35.0063V47.5061H40.0096V44.9962Z" fill="#F8F8F8"/>
<path d="M35.0059 17.5031H32.496V20.013H35.0059V17.5031Z" fill="#F8F8F8"/>
<path d="M35.0059 7.51324H32.496V10.0067H35.0059V7.51324Z" fill="#F8F8F8"/>
<path d="M35.0067 47.5065H7.51325V49.9999H35.0067V47.5065Z" fill="#F8F8F8"/>
<path d="M32.4968 15.0105H30.0033V17.5039H32.4968V15.0105Z" fill="#F8F8F8"/>
<path d="M32.4968 10.0059H30.0033V12.4994H32.4968V10.0059Z" fill="#F8F8F8"/>
<path d="M24.9996 35.0063H22.5061V42.503H30.0028V40.0096H24.9996V35.0063Z" fill="#F8F8F8"/>
<path d="M27.5094 25.0003V22.5069H30.0028V20.0135H22.5061V22.5069H24.9996V25.0003H27.5094Z" fill="#F8F8F8"/>
<path d="M27.5102 7.51324H25.0004V10.0067H27.5102V7.51324Z" fill="#F8F8F8"/>
<path d="M17.5039 32.4968V30.0034H15.0105V35.0066H22.5072V32.4968H17.5039Z" fill="#F8F8F8"/>
<path d="M22.5069 27.5091H20.0134V30.0025H22.5069V27.5091Z" fill="#F8F8F8"/>
<path d="M20.0138 40.0093H15.0105V42.5027H20.0138V40.0093Z" fill="#F8F8F8"/>
<path d="M17.5035 25.0003V22.5069H20.0133V20.0135H12.5002V22.5069H15.01V25.0003H17.5035Z" fill="#F8F8F8"/>
<path d="M30.0035 15.0095V12.4997H25.0002V10.0062H22.5068V12.4997H20.0133V5.00296H17.5035V12.4997H15.01V10.0062H12.5002V15.0095H30.0035Z" fill="#F8F8F8"/>
<path d="M15.0092 37.5006H10.0059V40.0104H15.0092V37.5006Z" fill="#F8F8F8"/>
<path d="M12.4994 15.0105H10.0059V17.5039H12.4994V15.0105Z" fill="#F8F8F8"/>
<path d="M12.4994 7.51324H10.0059V10.0067H12.4994V7.51324Z" fill="#F8F8F8"/>
<path d="M10.0067 17.5031H7.51325V37.4999H10.0067V17.5031Z" fill="#F8F8F8"/>
<path d="M10.0067 12.5002H7.51325V15.01H10.0067V12.5002Z" fill="#F8F8F8"/>
<path d="M7.5128 40.0093H5.00296V47.506H7.5128V40.0093Z" fill="#F8F8F8"/>
<path d="M7.5128 10.0059H5.00296V12.4994H7.5128V10.0059Z" fill="#F8F8F8"/>
<path d="M5.00373 30.0034H2.51029V40.0099H5.00373V30.0034Z" fill="#F8F8F8"/>
<path d="M2.50984 2.50984H37.5V15.0098H40.0098V0H0V30.0033H2.50984V2.50984Z" fill="#F8F8F8"/>
</svg>
