<svg width="50" height="50" viewBox="0 0 50 50" fill="none" xmlns="http://www.w3.org/2000/svg">
<path d="M42.3548 8.89114C39.1182 7.37701 35.6575 6.27661 32.0394 5.65002C31.595 6.45328 31.0759 7.53367 30.718 8.39312C26.8719 7.81479 23.0611 7.81479 19.2857 8.39312C18.9279 7.53367 18.397 6.45328 17.9487 5.65002C14.3267 6.27661 10.862 7.38105 7.6254 8.89916C1.09717 18.7629 -0.672523 28.3817 0.212326 37.8639C4.54219 41.0969 8.73835 43.0609 12.8637 44.3461C13.8823 42.9444 14.7907 41.4544 15.5733 39.884C14.0828 39.3178 12.6553 38.619 11.3064 37.8077C11.6643 37.5426 12.0143 37.2655 12.3525 36.9803C20.5796 40.8279 29.5185 40.8279 37.6474 36.9803C37.9895 37.2655 38.3395 37.5426 38.6934 37.8077C37.3406 38.6229 35.9091 39.3218 34.4187 39.8881C35.2012 41.4544 36.1058 42.9484 37.1282 44.35C41.2576 43.0649 45.4576 41.101 49.7875 37.8639C50.8257 26.8716 48.0139 17.3412 42.3548 8.89114ZM16.6941 32.0324C14.2244 32.0324 12.1991 29.7271 12.1991 26.9198C12.1991 24.1125 14.1812 21.8032 16.6941 21.8032C19.2071 21.8032 21.2324 24.1084 21.1892 26.9198C21.1931 29.7271 19.2071 32.0324 16.6941 32.0324ZM33.3057 32.0324C30.836 32.0324 28.8107 29.7271 28.8107 26.9198C28.8107 24.1125 30.7927 21.8032 33.3057 21.8032C35.8187 21.8032 37.844 24.1084 37.8008 26.9198C37.8008 29.7271 35.8187 32.0324 33.3057 32.0324Z" fill="#F8F8F8"/>
</svg>
