<svg width="50" height="50" viewBox="0 0 50 50" fill="none" xmlns="http://www.w3.org/2000/svg">
<g clip-path="url(#clip0_2497_422)">
<path d="M50 19.0469H47.625V30.9531H50V19.0469Z" fill="#F8F8F8"/>
<path d="M47.625 30.9531H45.25V35.7188H47.625V30.9531Z" fill="#F8F8F8"/>
<path d="M47.625 14.2969H45.25V19.0469H47.625V14.2969Z" fill="#F8F8F8"/>
<path d="M45.25 35.7188H42.8594V40.4844H45.25V35.7188Z" fill="#F8F8F8"/>
<path d="M45.25 9.53125H42.8594V14.2969H45.25V9.53125Z" fill="#F8F8F8"/>
<path d="M42.8594 40.4844H40.4844V42.8594H42.8594V40.4844Z" fill="#F8F8F8"/>
<path d="M42.8594 7.15625H40.4844V9.53125H42.8594V7.15625Z" fill="#F8F8F8"/>
<path d="M40.4844 42.8594H35.7188V45.25H40.4844V42.8594Z" fill="#F8F8F8"/>
<path d="M40.4844 4.76562H35.7188V7.15625H40.4844V4.76562Z" fill="#F8F8F8"/>
<path d="M35.7188 45.25H30.9531V47.625H35.7188V45.25Z" fill="#F8F8F8"/>
<path d="M35.7188 2.39062H30.9531V4.76562H35.7188V2.39062Z" fill="#F8F8F8"/>
<path d="M25.9971 12V13.995H24.0029V16.003H22.0087V17.998H20.0015V19.9929H18.0073V22.001H16V26.004H18.0073V27.999H24.0029V29.9939H22.0087V33.997H20.0015V38H24.0029V35.9919H25.9971V33.997H28.0044V32.002H29.9985V29.9939H31.9927V27.999H34V23.996H31.9927V22.001H28.0044V19.9929H29.9985V17.998H31.9927V16.003H34V12H25.9971Z" fill="#F8F8F8"/>
<path d="M30.9531 47.625H19.0625V50H30.9531V47.625Z" fill="#F8F8F8"/>
<path d="M30.9531 0H19.0625V2.39062H30.9531V0Z" fill="#F8F8F8"/>
<path d="M19.0625 45.25H14.2969V47.625H19.0625V45.25Z" fill="#F8F8F8"/>
<path d="M19.0625 2.39062H14.2969V4.76562H19.0625V2.39062Z" fill="#F8F8F8"/>
<path d="M14.2969 42.8594H9.53125V45.25H14.2969V42.8594Z" fill="#F8F8F8"/>
<path d="M14.2969 4.76562H9.53125V7.15625H14.2969V4.76562Z" fill="#F8F8F8"/>
<path d="M9.53125 40.4844H7.15625V42.8594H9.53125V40.4844Z" fill="#F8F8F8"/>
<path d="M9.53125 7.15625H7.15625V9.53125H9.53125V7.15625Z" fill="#F8F8F8"/>
<path d="M7.15625 35.7188H4.76562V40.4844H7.15625V35.7188Z" fill="#F8F8F8"/>
<path d="M7.15625 9.53125H4.76562V14.2969H7.15625V9.53125Z" fill="#F8F8F8"/>
<path d="M4.76562 30.9531H2.39062V35.7188H4.76562V30.9531Z" fill="#F8F8F8"/>
<path d="M4.76562 14.2969H2.39062V19.0469H4.76562V14.2969Z" fill="#F8F8F8"/>
<path d="M2.39062 19.0469H0V30.9531H2.39062V19.0469Z" fill="#F8F8F8"/>
</g>
<defs>
<clipPath id="clip0_2497_422">
<rect width="50" height="50" fill="white"/>
</clipPath>
</defs>
</svg>