<svg
  width="338"
  height="175"
  viewBox="0 0 338 175"
  fill="none"
  xmlns="http://www.w3.org/2000/svg"
  >
  <path
    d="M313.049 175H250.5V162.524H238.024V150.049H225.549V25.0366H238.024V12.561H250.5V0H313.049V12.561H325.524V25.0366H338V150.049H325.524V162.524H313.049V175ZM262.976 150.049H300.488V137.573H313.049V37.5122H300.488V25.0366H262.976V37.5122H250.5V137.573H262.976V150.049Z"
    fill="#01FF67"
  />
  <path
    d="M175.5 175H112.951V162.524H100.476V150.049H88V125.012H112.951V137.573H125.427V150.049H162.939V137.573H175.5V100.061H162.939V87.5H125.427V100.061H88V37.5122H100.476V0H187.976V25.0366H125.427V37.5122H112.951V75.0244H125.427V62.5488H175.5V75.0244H187.976V87.5H200.451V150.049H187.976V162.524H175.5V175Z"
    fill="#01FF67"
  />
  <path
    d="M63.0244 175H37.9878V43.75H0.561035V25.0366H37.9878V0H63.0244V175Z"
    fill="#01FF67"
  />
</svg>