<svg width="50" height="50" viewBox="0 0 50 50" fill="none" xmlns="http://www.w3.org/2000/svg">
<path d="M28.9461 5.88576L34.2137 5.88576V8.81899H36.8389V11.7715H39.4814V17.6573H42.1065V32.3427H39.4814L39.4814 38.2285L36.8389 38.2285V41.181H34.2137V44.1142H28.9461V47.0475H15.7856L15.7856 50H34.2137V47.0475L39.4814 47.0475V44.1142H42.1065V41.181H44.749V38.2285H47.3742L47.3742 32.3427H49.9993L49.9993 17.6573L47.3742 17.6573V11.7715H44.749V8.81899L42.1065 8.81899V5.88576L39.4814 5.88576V2.95253L34.2137 2.95253V0L15.7856 0V2.95253L28.9461 2.95253V5.88576Z" fill="#F8F8F8"/>
<path d="M39.4813 17.6567H36.8389V32.3422H39.4813V17.6567Z" fill="#F8F8F8"/>
<path d="M36.8386 32.3431H34.2134V35.2957H36.8386V32.3431Z" fill="#F8F8F8"/>
<path d="M36.8386 14.7043H34.2134V17.6569H36.8386V14.7043Z" fill="#F8F8F8"/>
<path d="M34.214 35.2955H31.5889V38.2288H34.214V35.2955Z" fill="#F8F8F8"/>
<path d="M34.214 11.7714H31.5889V14.7046H34.214V11.7714Z" fill="#F8F8F8"/>
<path d="M31.5882 38.2286H28.9458V41.1812H31.5882V38.2286Z" fill="#F8F8F8"/>
<path d="M31.5882 8.81897H28.9458V11.7715H31.5882V8.81897Z" fill="#F8F8F8"/>
<path d="M28.9461 41.182H15.7856V44.1152H28.9461V41.182Z" fill="#F8F8F8"/>
<path d="M28.9461 5.88538L15.7856 5.88538V8.81861L28.9461 8.81861V5.88538Z" fill="#F8F8F8"/>
<path d="M15.7855 44.1145H10.5352V47.0477H15.7855V44.1145Z" fill="#F8F8F8"/>
<path d="M15.7856 38.2286H13.1604V41.1812H15.7856V38.2286Z" fill="#F8F8F8"/>
<path d="M15.7853 8.81897H13.1602V11.7715H15.7853V8.81897Z" fill="#F8F8F8"/>
<path d="M15.7855 2.95239L10.5352 2.95239V5.88562L15.7855 5.88562V2.95239Z" fill="#F8F8F8"/>
<path d="M13.1603 35.2955H10.5352V38.2288H13.1603V35.2955Z" fill="#F8F8F8"/>
<path d="M13.1603 11.7714H10.5352V14.7046H13.1603V11.7714Z" fill="#F8F8F8"/>
<path d="M10.5355 41.182H7.89307L7.89307 44.1152H10.5355V41.182Z" fill="#F8F8F8"/>
<path d="M10.5355 32.3431H7.89307L7.89307 35.2957H10.5355V32.3431Z" fill="#F8F8F8"/>
<path d="M10.5355 14.7043H7.89307L7.89307 17.6569H10.5355V14.7043Z" fill="#F8F8F8"/>
<path d="M10.535 5.88538H7.89258L7.89258 8.81861H10.535V5.88538Z" fill="#F8F8F8"/>
<path d="M7.89276 38.2286H5.26758L5.26758 41.1812H7.89276V38.2286Z" fill="#F8F8F8"/>
<path d="M7.89276 17.6567H5.26758L5.26758 32.3422H7.89276L7.89276 17.6567Z" fill="#F8F8F8"/>
<path d="M7.89252 8.81897H5.26733L5.26733 11.7715H7.89252V8.81897Z" fill="#F8F8F8"/>
<path d="M5.2677 32.3431H2.62524L2.62524 38.2289H5.2677L5.2677 32.3431Z" fill="#F8F8F8"/>
<path d="M5.2677 11.7714H2.62524L2.62524 17.6571H5.2677L5.2677 11.7714Z" fill="#F8F8F8"/>
<path d="M2.62518 17.6567H0L0 32.3422H2.62518L2.62518 17.6567Z" fill="#F8F8F8"/>
<path d="M17.919 19.6078V21.4891H16V25.2642H17.919V27.1579H19.8506V29.0392H21.7695V30.9206H23.7011V29.0392H25.6201V27.1579H27.539V25.2642H29.4706V21.4891H27.539V19.6078H23.7011V21.4891H21.7695V19.6078H17.919Z" fill="#F8F8F8"/>
</svg>
