<svg width="50" height="50" viewBox="0 0 50 50" fill="none" xmlns="http://www.w3.org/2000/svg">
<path d="M50 19.0469H47.625V30.9531H50V19.0469Z" fill="white"/>
<path d="M47.625 30.9531H45.2344V35.7031H47.625V30.9531Z" fill="white"/>
<path d="M45.2344 35.7031H42.8594V40.4687H45.2344V35.7031Z" fill="white"/>
<path d="M45.2344 9.51562H42.8594V14.2813H45.2344V9.51562Z" fill="white"/>
<path d="M42.8594 40.4688H40.4844V42.8438H42.8594V40.4688Z" fill="white"/>
<path d="M42.8594 7.14062H40.4844V9.51562H42.8594V7.14062Z" fill="white"/>
<path d="M40.4844 42.8438H35.7188V45.2344H40.4844V42.8438Z" fill="white"/>
<path d="M40.4844 4.75H35.7188V7.14063H40.4844V4.75Z" fill="white"/>
<path d="M35.7188 45.2344H30.9531V47.6094H35.7188V45.2344Z" fill="white"/>
<path d="M35.7188 2.375H30.9531V4.75H35.7188V2.375Z" fill="white"/>
<path d="M30.9531 47.6094H19.0469V50H30.9531V47.6094Z" fill="white"/>
<path d="M30.9531 35.7031H21.4375V38.0937H30.9531V35.7031Z" fill="white"/>
<path d="M30.9531 0H19.0469V2.375H30.9531V0Z" fill="white"/>
<path d="M21.4375 33.3281H19.0469V35.7031H21.4375V33.3281Z" fill="white"/>
<path d="M19.0469 45.2344H14.2812V47.6094H19.0469V45.2344Z" fill="white"/>
<path d="M19.0469 2.375H14.2812V4.75H19.0469V2.375Z" fill="white"/>
<path d="M14.2813 42.8438H9.53125V45.2344H14.2813V42.8438Z" fill="white"/>
<path d="M14.2813 4.75H9.53125V7.14063H14.2813V4.75Z" fill="white"/>
<path d="M9.53125 40.4688H7.14062V42.8438H9.53125V40.4688Z" fill="white"/>
<path d="M9.53125 7.14062H7.14062V9.51562H9.53125V7.14062Z" fill="white"/>
<path d="M7.14063 35.7031H4.76562V40.4687H7.14063V35.7031Z" fill="white"/>
<path d="M4.76563 23.7969H7.14063V26.1875H9.53125V28.5625H19.0469V26.1875H21.4375V23.7969H23.8125V21.4219H28.5781V23.7969H30.9531V26.1875H33.3281V28.5625H42.8594V26.1875H45.2344V19.0469H47.625V14.2812H45.2344V16.6562H4.76563V14.2812H2.39062V19.0469H4.76563V23.7969Z" fill="white"/>
<path d="M7.14063 9.51562H4.76562V14.2813H7.14063V9.51562Z" fill="white"/>
<path d="M4.76562 30.9531H2.39062V35.7031H4.76562V30.9531Z" fill="white"/>
<path d="M2.39062 19.0469H0V30.9531H2.39062V19.0469Z" fill="white"/>
</svg>
