<svg width="50" height="50" viewBox="0 0 50 50" fill="none" xmlns="http://www.w3.org/2000/svg">
<path d="M47.6172 23.8203H45.2422V26.1953H47.6172V23.8203Z" fill="#0657E0"/>
<path d="M45.2422 26.1953H42.8516V28.5703H45.2422V26.1953Z" fill="#0657E0"/>
<path d="M45.2422 21.4297H42.8516V23.8203H45.2422V21.4297Z" fill="#0657E0"/>
<path d="M42.8516 28.5703H40.4766V30.9609H42.8516V28.5703Z" fill="#0657E0"/>
<path d="M42.8516 19.0547H40.4766V21.4297H42.8516V19.0547Z" fill="#0657E0"/>
<path d="M38.1016 38.1016H30.9453V40.4766H40.4766V30.9609H38.1016V38.1016Z" fill="#0657E0"/>
<path d="M23.8047 26.1953H21.4297V23.8203H19.0391V21.4297H16.6641V23.8203H14.2891V26.1953H16.6641V28.5703H19.0391V30.9609H21.4297V33.3359H23.8047V30.9609H26.1953V28.5703H28.5703V26.1953H30.9453V23.8203H33.3359V21.4297H35.7109V19.0547H33.3359V16.6641H30.9453V19.0547H28.5703V21.4297H26.1953V23.8203H23.8047V26.1953Z" fill="#0657E0"/>
<path d="M38.1016 11.9141V19.0547H40.4766V9.52344H30.9453V11.9141H38.1016Z" fill="#0657E0"/>
<path d="M30.9453 40.4766H28.5703V42.8672H30.9453V40.4766Z" fill="#0657E0"/>
<path d="M30.9453 7.14844H28.5703V9.52344H30.9453V7.14844Z" fill="#0657E0"/>
<path d="M28.5703 42.8672H26.1953V45.2422H28.5703V42.8672Z" fill="#0657E0"/>
<path d="M28.5703 4.77344H26.1953V7.14844H28.5703V4.77344Z" fill="#0657E0"/>
<path d="M26.1953 45.2422H23.8047V47.6172H26.1953V45.2422Z" fill="#0657E0"/>
<path d="M26.1953 2.38281H23.8047V4.77344H26.1953V2.38281Z" fill="#0657E0"/>
<path d="M23.8047 42.8672H21.4297V45.2422H23.8047V42.8672Z" fill="#0657E0"/>
<path d="M23.8047 4.77344H21.4297V7.14844H23.8047V4.77344Z" fill="#0657E0"/>
<path d="M21.4297 40.4766H19.0391V42.8672H21.4297V40.4766Z" fill="#0657E0"/>
<path d="M21.4297 7.14844H19.0391V9.52344H21.4297V7.14844Z" fill="#0657E0"/>
<path d="M11.8984 38.1016V30.9609H9.52344V40.4766H19.0391V38.1016H11.8984Z" fill="#0657E0"/>
<path d="M11.8984 11.9141H19.0391V9.52344H9.52344V19.0547H11.8984V11.9141Z" fill="#0657E0"/>
<path d="M9.52344 28.5703H7.14844V30.9609H9.52344V28.5703Z" fill="#0657E0"/>
<path d="M9.52344 19.0547H7.14844V21.4297H9.52344V19.0547Z" fill="#0657E0"/>
<path d="M7.14844 26.1953H4.75781V28.5703H7.14844V26.1953Z" fill="#0657E0"/>
<path d="M7.14844 21.4297H4.75781V23.8203H7.14844V21.4297Z" fill="#0657E0"/>
<path d="M4.75781 23.8203H2.38281V26.1953H4.75781V23.8203Z" fill="#0657E0"/>
</svg>
