<svg width="50" height="50" viewBox="0 0 50 50" fill="none" xmlns="http://www.w3.org/2000/svg">
<path d="M47.6094 23.8047H45.2344V16.6641H42.8594V23.8047H38.0937V26.1953H35.7188V30.9453H38.0937V33.3359H42.8594V42.8516H45.2344V33.3359H47.6094V30.9453H50V26.1953H47.6094V23.8047ZM42.8594 28.5703H40.4687V26.1953H42.8594V28.5703Z" fill="#0657E0"/>
<path d="M42.8594 42.8516H40.4688V45.2422H42.8594V42.8516Z" fill="#0657E0"/>
<path d="M42.8594 14.2891H40.4688V16.6641H42.8594V14.2891Z" fill="#0657E0"/>
<path d="M40.4688 45.2422H4.76562V47.6172H40.4688V45.2422Z" fill="#0657E0"/>
<path d="M35.7188 4.75781H30.9531V7.14844H35.7188V4.75781Z" fill="#0657E0"/>
<path d="M30.9531 7.14844H26.1875V9.52344H30.9531V7.14844Z" fill="#0657E0"/>
<path d="M26.1875 4.75781H23.8125V7.14844H26.1875V4.75781Z" fill="#0657E0"/>
<path d="M23.8125 2.38281H19.0469V4.75781H23.8125V2.38281Z" fill="#0657E0"/>
<path d="M19.0469 4.75781H14.2812V7.14844H19.0469V4.75781Z" fill="#0657E0"/>
<path d="M14.2813 7.14844H9.51562V9.52344H14.2813V7.14844Z" fill="#0657E0"/>
<path d="M11.9062 16.6641H9.51562V42.8516H11.9062V16.6641Z" fill="#0657E0"/>
<path d="M40.4688 14.2891V11.8984H38.0938V7.14844H35.7188V11.8984H26.1875V9.52344H23.8125V11.8984H9.51563V9.52344H7.14063V11.8984H4.76562V14.2891H40.4688Z" fill="#0657E0"/>
<path d="M4.76562 42.8516H2.375V45.2422H4.76562V42.8516Z" fill="#0657E0"/>
<path d="M4.76562 14.2891H2.375V16.6641H4.76562V14.2891Z" fill="#0657E0"/>
<path d="M2.375 16.6641H0V42.8516H2.375V16.6641Z" fill="#0657E0"/>
</svg>
