<svg width="32" height="32" viewBox="0 0 32 32" fill="none" xmlns="http://www.w3.org/2000/svg">
<circle cx="16" cy="16" r="15.5" fill="url(#paint0_linear_145_5990)" stroke="#2B2B2B"/>
<g clip-path="url(#clip0_145_5990)">
<path d="M28 20.4976H26.8525V21.6451H28V20.4976Z" fill="#2B2B2B"/>
<path d="M26.8525 14.79H22.285V10.215H23.425V9.07499H22.285V7.92749H9.715V9.07499H8.5675V10.215H7.4275V11.355H6.2875V12.5025H5.14V13.6425H4V17.07H5.14V15.93H10.855V18.2175H11.995V20.4975H13.1425V22.785H14.2825V25.0725H15.43V15.93H19.9975V18.2175H18.8575V20.4975H17.71V22.785H16.57V25.0725H15.43V26.2125H14.2825V27.36H15.43V28.5H16.57V27.36H17.71V26.2125H18.8575V25.0725H19.9975V23.9325H21.145V22.785H22.285V21.645H23.425V20.4975H24.5725V19.3575H25.7125V18.2175H26.8525V17.07H28V13.6425H26.8525V14.79ZM19.9975 14.79H11.995V13.6425H10.855V9.07499H15.43V10.215H16.57V11.355H17.71V12.5025H18.8575V13.6425H19.9975V14.79Z" fill="#2B2B2B"/>
<path d="M26.8524 23.9325H25.7124V25.0725H26.8524V23.9325Z" fill="#2B2B2B"/>
<path d="M26.8524 12.5024H25.7124V13.6424H26.8524V12.5024Z" fill="#2B2B2B"/>
<path d="M25.7123 25.0725H24.5723V26.2125H25.7123V25.0725Z" fill="#2B2B2B"/>
<path d="M25.7123 22.785H24.5723V23.9325H25.7123V22.785Z" fill="#2B2B2B"/>
<path d="M25.7123 11.355H24.5723V12.5025H25.7123V11.355Z" fill="#2B2B2B"/>
<path d="M24.5723 6.78751H23.4248V7.92752H24.5723V9.07501H25.7123V7.92752H26.8523V6.78751H25.7123V5.64001H24.5723V6.78751Z" fill="#2B2B2B"/>
<path d="M24.5723 23.9325H23.4248V25.0725H24.5723V23.9325Z" fill="#2B2B2B"/>
<path d="M24.5723 10.215H23.4248V11.355H24.5723V10.215Z" fill="#2B2B2B"/>
<path d="M22.285 27.36H21.145V28.5H22.285V27.36Z" fill="#2B2B2B"/>
<path d="M22.285 4.5H21.145V5.64H22.285V4.5Z" fill="#2B2B2B"/>
<path d="M15.4302 10.215H14.2827V11.355H15.4302V10.215Z" fill="#2B2B2B"/>
<path d="M15.4302 5.64001H14.2827V6.78751H15.4302V5.64001Z" fill="#2B2B2B"/>
<path d="M14.2826 25.0725H13.1426V26.2125H14.2826V25.0725Z" fill="#2B2B2B"/>
<path d="M14.2826 11.355H13.1426V12.5025H14.2826V11.355Z" fill="#2B2B2B"/>
<path d="M13.1426 23.9325H11.9951V25.0725H13.1426V23.9325Z" fill="#2B2B2B"/>
<path d="M13.1426 12.5024H11.9951V13.6424H13.1426V12.5024Z" fill="#2B2B2B"/>
<path d="M11.995 26.2125H10.855V27.36H11.995V26.2125Z" fill="#2B2B2B"/>
<path d="M11.995 22.785H10.855V23.9325H11.995V22.785Z" fill="#2B2B2B"/>
<path d="M10.8548 21.645H9.71484V22.785H10.8548V21.645Z" fill="#2B2B2B"/>
<path d="M9.71488 20.4976H8.56738V21.6451H9.71488V20.4976Z" fill="#2B2B2B"/>
<path d="M8.56773 19.3575H7.42773V20.4975H8.56773V19.3575Z" fill="#2B2B2B"/>
<path d="M8.56773 6.78748H7.42773V7.92748H8.56773V6.78748Z" fill="#2B2B2B"/>
<path d="M6.28764 22.785V23.9325H5.14014V25.0725H6.28764V26.2125H7.42764V25.0725H8.56764V23.9325H7.42764V22.785H6.28764Z" fill="#2B2B2B"/>
<path d="M7.4276 18.2175H6.2876V19.3575H7.4276V18.2175Z" fill="#2B2B2B"/>
<path d="M7.4276 7.92749H6.2876V9.07499H7.4276V7.92749Z" fill="#2B2B2B"/>
<path d="M7.4276 5.64001H6.2876V6.78751H7.4276V5.64001Z" fill="#2B2B2B"/>
<path d="M6.28764 17.0699H5.14014V18.2174H6.28764V17.0699Z" fill="#2B2B2B"/>
<path d="M6.28764 6.78748H5.14014V7.92748H6.28764V6.78748Z" fill="#2B2B2B"/>
<path d="M5.14 20.4976H4V21.6451H5.14V20.4976Z" fill="#2B2B2B"/>
</g>
<defs>
<linearGradient id="paint0_linear_145_5990" x1="26.9836" y1="28.5141" x2="5.75825" y2="2.20167" gradientUnits="userSpaceOnUse">
<stop stop-color="#01FF67"/>
<stop offset="1" stop-color="#F8F8F8"/>
</linearGradient>
<clipPath id="clip0_145_5990">
<rect width="24" height="24" fill="white" transform="translate(4 4.5)"/>
</clipPath>
</defs>
</svg>
