<svg width="32" height="32" viewBox="0 0 32 32" fill="none" xmlns="http://www.w3.org/2000/svg">
<circle cx="16" cy="16" r="15.5" fill="url(#paint0_linear_145_6025)" stroke="#2B2B2B"/>
<g clip-path="url(#clip0_145_6025)">
<path d="M28.5 13.0234H27.3047V18.9766H28.5V13.0234Z" fill="#2B2B2B"/>
<path d="M27.3047 18.9766H26.1172V21.3594H27.3047V18.9766Z" fill="#2B2B2B"/>
<path d="M27.3047 10.6406H26.1172V13.0234H27.3047V10.6406Z" fill="#2B2B2B"/>
<path d="M26.1172 21.3594H24.9297V23.7344H26.1172V21.3594Z" fill="#2B2B2B"/>
<path d="M26.1172 8.25781H24.9297V10.6406H26.1172V8.25781Z" fill="#2B2B2B"/>
<path d="M24.9297 23.7344H23.7344V24.9297H24.9297V23.7344Z" fill="#2B2B2B"/>
<path d="M24.9297 7.07031H23.7344V8.25781H24.9297V7.07031Z" fill="#2B2B2B"/>
<path d="M23.7344 24.9297H21.3516V26.1172H23.7344V24.9297Z" fill="#2B2B2B"/>
<path d="M22.5469 11.8359H21.3516V10.6406H17.7812V11.8359H16.5938V13.0234H15.3984V11.8359H14.2109V10.6406H10.6406V11.8359H9.45312V13.0234H8.25781V16.5938H9.45312V17.7891H10.6406V18.9766H11.8281V20.1641H13.0234V21.3594H14.2109V22.5469H15.3984V23.7344H16.5938V22.5469H17.7812V21.3594H18.9766V20.1641H20.1641V18.9766H21.3516V17.7891H22.5469V16.5938H23.7344V13.0234H22.5469V11.8359ZM21.3516 16.5938H20.1641V14.2109H17.7812V13.0234H20.1641V14.2109H21.3516V16.5938Z" fill="#2B2B2B"/>
<path d="M23.7344 5.88281H21.3516V7.07031H23.7344V5.88281Z" fill="#2B2B2B"/>
<path d="M21.3516 26.1172H18.9766V27.3125H21.3516V26.1172Z" fill="#2B2B2B"/>
<path d="M21.3516 4.6875H18.9766V5.88281H21.3516V4.6875Z" fill="#2B2B2B"/>
<path d="M18.9766 27.3125H13.0234V28.5H18.9766V27.3125Z" fill="#2B2B2B"/>
<path d="M18.9766 3.5H13.0234V4.6875H18.9766V3.5Z" fill="#2B2B2B"/>
<path d="M13.0234 26.1172H10.6406V27.3125H13.0234V26.1172Z" fill="#2B2B2B"/>
<path d="M13.0234 4.6875H10.6406V5.88281H13.0234V4.6875Z" fill="#2B2B2B"/>
<path d="M10.6406 24.9297H8.25781V26.1172H10.6406V24.9297Z" fill="#2B2B2B"/>
<path d="M10.6406 5.88281H8.25781V7.07031H10.6406V5.88281Z" fill="#2B2B2B"/>
<path d="M8.25781 23.7344H7.07031V24.9297H8.25781V23.7344Z" fill="#2B2B2B"/>
<path d="M8.25781 7.07031H7.07031V8.25781H8.25781V7.07031Z" fill="#2B2B2B"/>
<path d="M7.07031 21.3594H5.875V23.7344H7.07031V21.3594Z" fill="#2B2B2B"/>
<path d="M7.07031 8.25781H5.875V10.6406H7.07031V8.25781Z" fill="#2B2B2B"/>
<path d="M5.875 18.9766H4.6875V21.3594H5.875V18.9766Z" fill="#2B2B2B"/>
<path d="M5.875 10.6406H4.6875V13.0234H5.875V10.6406Z" fill="#2B2B2B"/>
<path d="M4.6875 13.0234H3.5V18.9766H4.6875V13.0234Z" fill="#2B2B2B"/>
</g>
<defs>
<linearGradient id="paint0_linear_145_6025" x1="26.9836" y1="28.5141" x2="5.75825" y2="2.20167" gradientUnits="userSpaceOnUse">
<stop stop-color="#01FF67"/>
<stop offset="1" stop-color="#F8F8F8"/>
</linearGradient>
<clipPath id="clip0_145_6025">
<rect width="25" height="25" fill="white" transform="translate(3.5 3.5)"/>
</clipPath>
</defs>
</svg>
