<svg width="1224" height="1270" viewBox="0 0 1224 1270" fill="none" xmlns="http://www.w3.org/2000/svg">
<path d="M405.262 1065.99L465.413 1029.21L501.968 1088.99L561.752 1052.44L598.531 1112.59L658.682 1075.81L695.461 1135.96L1056 915.517L1092.78 975.668L612.303 1269.45L538.746 1149.14L478.594 1185.92L405.262 1065.99ZM541.553 74.1293L661.856 0.572332L698.634 60.7239L758.786 23.9454L795.564 84.0969L855.716 47.3184L929.273 167.621L989.057 131.067L1209.5 491.609L1149.72 528.164L1223.05 648.1L1162.9 684.878L1199.68 745.03L1139.53 781.808L1176.31 841.96L1056 915.517L1019.22 855.365L1079.38 818.587L1042.6 758.435L1102.75 721.657L1029.42 601.721L1089.57 564.942L869.121 204.4L808.97 241.178L735.413 120.875L675.261 157.654L638.483 97.5024L578.331 134.281L541.553 74.1293ZM24.5201 308.124L504.998 14.3446L541.553 74.1293L181.01 294.576L217.789 354.727L157.637 391.506L304.751 632.112L455.13 540.166L491.684 599.95L161.218 802.008L124.664 742.223L184.815 705.445L0.922744 404.687L61.0742 367.909L24.5201 308.124Z" fill="url(#paint0_linear_4_16423)"/>
<defs>
<linearGradient id="paint0_linear_4_16423" x1="648.695" y1="1292.71" x2="315.536" y2="46.8062" gradientUnits="userSpaceOnUse">
<stop stop-color="#0657E0"/>
<stop offset="1" stop-color="#2B2B2B"/>
</linearGradient>
</defs>
</svg>
